<svg width="50" height="50" viewBox="0 0 50 50" fill="none" xmlns="http://www.w3.org/2000/svg">
<path d="M25 3.125C20.6735 3.125 16.4442 4.40795 12.8469 6.8116C9.24959 9.21526 6.44581 12.6317 4.79014 16.6288C3.13448 20.6259 2.70128 25.0243 3.54533 29.2676C4.38938 33.5109 6.47277 37.4087 9.53205 40.468C12.5913 43.5272 16.4891 45.6106 20.7324 46.4547C24.9757 47.2987 29.3741 46.8655 33.3712 45.2099C37.3683 43.5542 40.7848 40.7504 43.1884 37.1531C45.5921 33.5558 46.875 29.3265 46.875 25C46.875 19.1984 44.5703 13.6344 40.468 9.53204C36.3656 5.42968 30.8016 3.125 25 3.125V3.125ZM37.5 38.9359V37.9859C37.5434 35.8553 36.7495 33.7926 35.2887 32.241C33.8279 30.6894 31.8169 29.7726 29.6875 29.6875H20.3125C18.1849 29.773 16.1759 30.6902 14.7178 32.2419C13.2596 33.7935 12.4689 35.8556 12.5156 37.9844C12.5156 38.0016 12.5 38.0188 12.5 38.0359V38.95C9.66549 36.4198 7.66616 33.0885 6.76667 29.397C5.86718 25.7055 6.10994 21.8278 7.46282 18.2773C8.81569 14.7268 11.2149 11.6708 14.3428 9.51392C17.4708 7.35701 21.18 6.20085 24.9795 6.19848C28.7791 6.1961 32.4897 7.34763 35.6204 9.50063C38.751 11.6536 41.154 14.7066 42.5114 18.2554C43.8687 21.8042 44.1163 25.6815 43.2214 29.3742C42.3265 33.0668 40.3314 36.4006 37.5 38.9344V38.9359Z" fill="#17252A"/>
<path d="M25 10.9375C23.4548 10.9375 21.9444 11.3957 20.6596 12.2541C19.3749 13.1126 18.3735 14.3327 17.7822 15.7603C17.1909 17.1878 17.0362 18.7587 17.3376 20.2741C17.6391 21.7896 18.3831 23.1817 19.4757 24.2743C20.5683 25.3669 21.9604 26.1109 23.4759 26.4124C24.9913 26.7138 26.5622 26.5591 27.9897 25.9678C29.4173 25.3765 30.6374 24.3752 31.4959 23.0904C32.3543 21.8056 32.8125 20.2952 32.8125 18.75C32.8125 16.678 31.9894 14.6909 30.5243 13.2257C29.0592 11.7606 27.072 10.9375 25 10.9375V10.9375Z" fill="#17252A"/>
</svg>
