<svg width="18" height="18" viewBox="0 0 18 18" fill="none" xmlns="http://www.w3.org/2000/svg">
<path d="M9.185 5.58501C8.78034 5.58548 8.37903 5.65829 8 5.80001L12.4 10.2C12.5436 9.81629 12.6164 9.40971 12.615 9.00001C12.611 8.09292 12.2479 7.22433 11.6051 6.58432C10.9623 5.94431 10.0921 5.585 9.185 5.58501V5.58501Z" fill="#AF0D0D"/>
<path d="M17.145 8.765C15.46 5.65 12.505 3.765 9.23499 3.765C8.34467 3.76709 7.46032 3.91054 6.61499 4.19L7.41999 5C8.01292 4.84676 8.62259 4.76783 9.23499 4.765C12.05 4.765 14.61 6.335 16.135 8.98C15.5756 9.9613 14.834 10.8268 13.95 11.53L14.66 12.24C15.683 11.4147 16.5327 10.3951 17.16 9.24L17.29 9L17.145 8.765Z" fill="#AF0D0D"/>
<path d="M2.435 2.89L4.665 5.12C3.25546 6.02756 2.10345 7.28289 1.32 8.765L1.19 9L1.32 9.24C3.005 12.355 5.96 14.24 9.23 14.24C10.5063 14.2397 11.7661 13.9509 12.915 13.395L15.415 15.895L16.29 15.145L3.29 2.145L2.435 2.89ZM6.585 7.04C6.11722 7.6997 5.89796 8.50365 5.96606 9.3095C6.03415 10.1153 6.38521 10.8711 6.95706 11.443C7.52891 12.0148 8.28466 12.3659 9.09051 12.4339C9.89635 12.502 10.7003 12.2828 11.36 11.815L12.16 12.615C11.2339 13.0109 10.2372 13.215 9.23 13.215C6.415 13.215 3.855 11.645 2.33 9C3.06186 7.70411 4.11586 6.6191 5.39 5.85L6.585 7.04Z" fill="#AF0D0D"/>
</svg>
