<svg width="25" height="25" viewBox="0 0 25 25" fill="none" xmlns="http://www.w3.org/2000/svg">
<path d="M25 7.8125C25 9.22852 24.6501 10.5387 23.9502 11.7432C23.2503 12.9476 22.3022 13.8957 21.106 14.5874C19.9097 15.2791 18.6035 15.625 17.1875 15.625H16.4062C14.8438 16.3249 14.0625 17.3665 14.0625 18.75C14.0625 20.4102 14.7135 21.5413 16.0156 22.1436C16.862 22.29 17.5293 22.4772 18.0176 22.7051C18.5059 22.9329 18.75 23.1771 18.75 23.4375C18.75 23.877 18.1396 24.2472 16.9189 24.5483C15.6982 24.8494 14.2253 25 12.5 25C10.7747 25 9.30176 24.8494 8.08105 24.5483C6.86035 24.2472 6.25 23.877 6.25 23.4375C6.25 23.1771 6.49414 22.9329 6.98242 22.7051C7.4707 22.4772 8.13802 22.29 8.98438 22.1436C10.2865 21.5413 10.9375 20.4102 10.9375 18.75C10.9375 17.3665 10.1562 16.3249 8.59375 15.625H7.8125C6.39648 15.625 5.09033 15.2791 3.89404 14.5874C2.69775 13.8957 1.74967 12.9476 1.0498 11.7432C0.349935 10.5387 0 9.22852 0 7.8125C0 6.25 0.427246 4.89909 1.28174 3.75977C2.13623 2.62044 3.27962 1.80664 4.71191 1.31836C4.69564 0.813802 4.6875 0.374349 4.6875 0H20.3125C20.3125 0.390625 20.3044 0.830078 20.2881 1.31836C21.7204 1.80664 22.8638 2.62044 23.7183 3.75977C24.5728 4.89909 25 6.25 25 7.8125ZM5.00488 4.58984C3.75163 5.28971 3.125 6.36393 3.125 7.8125C3.125 9.06576 3.56038 10.144 4.43115 11.0474C5.30192 11.9507 6.35579 12.4268 7.59277 12.4756C6.32324 10.5062 5.46061 7.8776 5.00488 4.58984ZM13.916 4.71191L12.5 1.5625L11.084 4.71191L7.8125 5.15137L10.2295 7.51953L9.59473 10.9375L12.5 9.27734L15.4053 10.9375L14.7705 7.51953L17.1875 5.15137L13.916 4.71191ZM19.9951 4.58984C19.5394 7.8776 18.6768 10.5062 17.4072 12.4756C18.6442 12.4268 19.6981 11.9507 20.5688 11.0474C21.4396 10.144 21.875 9.06576 21.875 7.8125C21.875 6.36393 21.2484 5.28971 19.9951 4.58984Z" fill="#17252A"/>
</svg>
