<svg width="18" height="18" viewBox="0 0 18 18" fill="none" xmlns="http://www.w3.org/2000/svg">
<path d="M16.81 8.765C15.125 5.65 12.17 3.765 8.89999 3.765C5.62999 3.765 2.66999 5.65 0.999985 8.765L0.859985 9L0.989985 9.24C2.67499 12.355 5.62999 14.24 8.89999 14.24C12.17 14.24 15.13 12.38 16.81 9.24L16.94 9L16.81 8.765ZM8.89999 13.215C6.08499 13.215 3.49999 11.645 1.99999 9C3.49999 6.355 6.08499 4.785 8.89999 4.785C11.715 4.785 14.27 6.36 15.795 9C14.27 11.645 11.71 13.215 8.89999 13.215V13.215Z" fill="#167230"/>
<path d="M9.04499 12.445C10.9393 12.445 12.475 10.9093 12.475 9.01501C12.475 7.12067 10.9393 5.58501 9.04499 5.58501C7.15065 5.58501 5.61499 7.12067 5.61499 9.01501C5.61499 10.9093 7.15065 12.445 9.04499 12.445Z" fill="#167230"/>
</svg>
